<?xml version="1.0" encoding="UTF-8"?>
<!DOCTYPE svg PUBLIC "-//W3C//DTD SVG 1.1//EN" "http://www.w3.org/Graphics/SVG/1.1/DTD/svg11.dtd">
<!-- Creator: CorelDRAW 2019 (64-Bit) -->
<svg xmlns="http://www.w3.org/2000/svg" xml:space="preserve" width="210mm" height="297mm" version="1.1" style="shape-rendering:geometricPrecision; text-rendering:geometricPrecision; image-rendering:optimizeQuality; fill-rule:evenodd; clip-rule:evenodd"
viewBox="0 0 21000 29700"
 xmlns:xlink="http://www.w3.org/1999/xlink">
 <defs>
  <style type="text/css">
   <![CDATA[
    .str0 {stroke:#5A221B;stroke-width:64.35;stroke-miterlimit:2.61313}
    .fil10 {fill:none}
    .fil2 {fill:#888888}
    .fil7 {fill:#8A8A8A}
    .fil8 {fill:#8D8D8D}
    .fil0 {fill:#909090}
    .fil6 {fill:#979797}
    .fil5 {fill:#9C9C9C}
    .fil1 {fill:#A6A6A6}
    .fil3 {fill:#A7A7A7}
    .fil4 {fill:#B0B0B0}
    .fil9 {fill:#5A221B;fill-rule:nonzero}
   ]]>
  </style>
 </defs>
 <g id="Layer_x0020_1">
  <metadata id="CorelCorpID_0Corel-Layer"/>
  <path class="fil0" d="M16816.94 12496.94c0,-58.17 -36.1,-35.2 -104.62,-35.2l104.62 35.2z"/>
  <path class="fil1" d="M17135.8 12550.05c0,-57.73 -15.36,-35.17 -89.27,-35.17l89.27 35.17z"/>
  <path class="fil2" d="M16949.8 12519.16c-33.83,-36.39 56.91,-30.85 -80.88,-30.85l80.88 30.85z"/>
  <path class="fil3" d="M19212.42 12249.17c-40.61,0 -31.9,-10.22 -27.19,29.75 37.27,0 27.19,8.9 27.19,-29.75z"/>
  <path class="fil4" d="M18973.37 12461.74c-40.83,0 -32.1,-10.22 -26.88,30.02l26.88 -30.02z"/>
  <path class="fil5" d="M18946.49 12491.76c-39.85,-4.51 -31.37,-13.83 -27.98,25.33l27.98 -25.33z"/>
  <path class="fil6" d="M19185.23 12278.92c-39.3,-4.15 -30.07,-13.43 -30.07,25.14l30.07 -25.14z"/>
  <path class="fil7" d="M18918.51 12517.09c-38.32,-2.91 -29.06,-12.01 -29.06,25.89l29.06 -25.89z"/>
  <path class="fil8" d="M19661.68 11852.18c-37.27,-2.07 -28.25,-11.07 -28.25,25.76l28.25 -25.76z"/>
  <g id="_2332294557408">
   <path class="fil9" d="M5165.02 9869.07l-67.72 52.68c-76.92,61.86 -138.77,106.58 -185.59,134.17 -46.81,27.6 -83.6,41.39 -110.36,41.39 -21.73,0 -44.72,-7.11 -68.96,-21.33 -24.25,-14.22 -44.73,-32.17 -61.44,-53.93l50.15 47.67c-56.83,-75.24 -95.72,-127.92 -116.62,-158.01 -20.91,-30.1 -65.2,-94.89 -132.93,-194.37 -67.7,-99.48 -140.01,-206.91 -216.93,-322.28l-163.02 -233.23 378.7 -316.01 92.79 -90.28c31.77,-33.45 47.67,-66.05 47.67,-97.82 0,-45.15 -37.63,-84.43 -112.87,-117.88 -18.4,-10.02 -38.03,-19.63 -58.94,-28.84 -20.9,-9.19 -39.71,-15.45 -56.43,-18.81l183.1 -117.88 132.9 -105.33 55.18 15.05 90.29 35.1c102,48.5 152.98,99.5 152.98,153.01 0,33.42 -20.06,72.73 -60.19,117.87l-260.82 228.22 -241.19 217.36 32.6 35.1 17.57 22.58 273.37 381.63 17.55 22.58 196.05 258.74c41.79,53.51 78.57,80.25 110.34,80.25 18.4,0 37.63,-5.01 57.69,-15.05l25.08 47.65zm-1123.59 22.16l-94.47 50.15c-38.43,21.75 -78.14,45.57 -119.53,71.48 -41.81,25.92 -88.21,59.79 -139.61,101.58 0,-127.07 0.83,-249.55 2.5,-367.43 1.68,-117.88 3.36,-235.33 5.01,-352.36 -11.69,-339.01 -17.55,-543.82 -17.55,-614.05l-2.5 -17.55 -15.05 -90.29c-5.01,-26.74 -14.22,-50.15 -27.59,-70.22 -13.37,-20.06 -33.43,-30.1 -60.19,-30.1 -21.74,0 -41.79,8.36 -60.19,25.09l-25.09 -55.19 228.24 -142.94c58.51,-45.14 106.99,-80.27 145.45,-105.33 38.46,-25.09 66.05,-37.63 82.77,-37.63 36.78,0 61.02,15.89 72.73,47.65 11.7,31.77 18.81,91.13 21.31,178.06 2.51,86.96 3.76,321.86 3.76,704.34l0 456.44 0 248.3zm2563.19 12.54l-303.48 211.09c-11.7,-35.53 -21.74,-63.12 -30.1,-83.6 -8.36,-20.07 -27.59,-61.87 -57.69,-124.98 -30.09,-63.12 -68.95,-121.64 -116.6,-175.14 -47.67,-53.51 -97.4,-91.97 -149.23,-115.38 -51.84,-23.41 -92.81,-38.86 -122.9,-46.39 -30.1,-7.52 -62.27,-13.37 -96.55,-17.55 -34.28,-4.19 -58.94,-6.27 -73.99,-6.27 -23.41,0 -49.75,2.51 -78.99,7.52 -29.27,5.01 -52.26,16.72 -68.98,35.1 -16.72,18.4 -25.09,39.31 -25.09,62.72 0,6.68 4.19,22.56 12.55,47.65 8.36,25.06 35.12,53.08 80.27,84 45.14,30.94 86.1,48.92 122.88,53.93 36.78,5.01 60.19,7.53 70.21,7.53 10.04,0 20.91,0 32.62,0 70.21,0 130.4,-12.54 180.57,-37.63l30.1 35.11 -5.03 5.03 -117.86 110.34c-61.86,58.52 -114.95,99.48 -159.26,122.89 -44.32,23.41 -91.54,35.12 -141.71,35.12l-35.11 0c-10.03,0 -17.55,0 -22.56,0 -105.35,-11.71 -186.43,-40.96 -243.29,-88.2 -56.83,-46.82 -85.25,-101.98 -85.25,-165.95 0,-36.78 17.95,-88.61 53.91,-155.49 35.95,-67.3 114.12,-138.36 234.5,-214.02 65.2,-36.78 137.1,-66.05 215.68,-87.78l32.6 -5.01 50.17 -12.54 87.78 -20.06 -30.1 -50.58c-45.14,-70.23 -90.28,-122.88 -135.43,-158.41 -45.14,-35.13 -87.78,-52.68 -127.91,-52.68 -31.77,0 -61.02,8.36 -87.78,25.09l-20.06 -27.59 170.53 -142.97c48.5,-40.11 89.89,-70.63 124.16,-91.54 34.28,-20.9 63.95,-31.34 89.04,-31.34 51.83,0 115.35,49.32 190.59,148.39 75.24,98.65 130,173.47 164.27,223.62 34.28,50.17 70.23,105.76 107.86,167.2 37.61,61.04 73.97,124.56 109.09,190.61 35.11,66.45 82.75,158.84 142.95,277.97l32.62 60.19zm948.02 -1047.93c-56.03,48.5 -106.6,95.32 -152.58,140.46 -45.56,45.14 -90.28,94.47 -134.6,147.97l-104.08 0 0 35.11 0 173.89c0,80.24 0,137.53 0,170.95 0,33.45 0,58.11 0,73.16l0 15.05 15.47 95.72c6.69,50.15 17.56,85.68 32.18,107.01 14.64,20.89 32.62,33.85 53.93,38.86 21.33,5.03 35.53,7.54 42.21,7.54 12.12,0 26.77,-3.36 43.89,-10.04l25.51 50.15c-43.48,31.77 -74.41,54.35 -92.81,67.72 -18.38,13.38 -44.29,29.27 -77.74,47.65l-15.05 10.04 -72.73 40.12c-58.52,31.77 -103.66,47.66 -135.43,47.66 -55.16,0 -94.87,-40.13 -119.13,-119.97 -24.24,-79.83 -38.03,-157.59 -41.39,-234.08 -3.33,-76.49 -5.01,-214.85 -5.01,-414.65l10.04 -201.89 -77.74 0c-20.08,0 -51.85,1.66 -95.32,5.01 -43.46,3.36 -76.91,5.01 -100.32,5.01l137.95 -179.72 37.61 -50.58 35.13 -50.58 77.74 10.02 7.51 -137.93 100.33 -67.73 100.32 -65.2 72.74 -47.64 72.71 -47.65 -17.55 356.13 158.01 0c28.42,0 61.02,-1.67 97.8,-5.02 36.8,-3.34 76.92,-7.52 120.4,-12.55zm1248.99 1050.86l-77.77 47.65 -75.24 52.65 -85.25 55.19 -82.78 57.68c0,-63.54 -2.08,-121.21 -6.26,-173.06 -4.18,-51.83 -11.29,-120.78 -21.33,-206.89 -10.02,-86.12 -20.05,-153.83 -30.09,-203.15 -10.02,-49.33 -25.07,-102 -45.15,-158.01 -20.05,-56.01 -53.5,-84.01 -100.32,-84.01 -35.11,0 -70.21,14.2 -105.34,43.04 -35.1,28.44 -62.69,51.83 -82.75,70.66 -20.05,18.38 -48.49,46.82 -85.28,85.68 -36.78,38.46 -97.8,113.7 -183.07,224.46 -85.28,111.19 -158.84,244.95 -220.71,401.28l-57.69 -22.56 9.21 -130.84 5.84 -143.37c0,-145.89 0,-284.66 0,-416.33 0,-131.67 0,-257.06 0,-376.19l0 -65.22 -17.55 -236.59c0,-63.52 -2.93,-112.44 -8.77,-145.87 -5.85,-33.45 -15.89,-71.9 -30.11,-115.79 -14.2,-43.47 -38.86,-65.2 -73.97,-65.2 -23.41,0 -52.68,8.36 -87.78,25.08l-22.58 15.05 -12.54 -47.67c-1.66,-5.01 28.01,-27.16 89.03,-66.45 61.04,-39.29 127.49,-82.35 199.4,-129.17l42.62 -27.59 45.14 -27.57 62.71 -30.1c10.02,-5.03 20.89,-7.53 32.6,-7.53 70.23,0 105.34,56.86 105.34,170.55 0,70.21 0.83,134.18 2.5,191.85 1.68,57.68 4.18,117.47 7.54,179.32l0 569.33 0 255.81 85.25 -100.33c98.65,-117.04 163.45,-192.69 194.37,-226.96 30.95,-34.28 74.84,-77.75 131.67,-130.42 56.86,-52.68 106.59,-93.22 149.23,-121.64 42.64,-28.42 78.17,-42.64 106.59,-42.64 40.13,0 71.48,26.34 94.06,79 22.56,52.68 41.79,117.05 57.67,193.11 15.89,76.09 32.19,181 48.92,314.75l15.04 160.52 7.52 107.84 5.03 95.32 15.05 105.33zm709.74 -1366.86l-215.67 168.03c-21.74,18.4 -52.66,27.59 -92.8,27.59 -16.72,0 -35.95,-2.5 -57.68,-7.51 -21.74,-5.03 -41.81,-15.05 -60.19,-30.1 -18.4,-15.05 -38.46,-40.13 -60.19,-75.24l-15.05 -32.6c66.88,-58.53 137.93,-114.54 213.17,-168.05l80.27 -50.15 35.1 37.61c35.11,43.49 63.95,73.58 86.53,90.29 22.57,16.72 51.41,30.11 86.51,40.13zm-35.1 1333.84c-120.38,68.55 -237.41,147.97 -351.11,238.25 0,-56.85 0,-131.67 0,-224.46 0,-92.79 0,-157.59 0,-194.37l-22.58 -363.24c0,-132.08 -34.28,-198.13 -102.83,-198.13 -18.38,0 -41.79,5.01 -70.21,15.05l-22.58 10.04 -35.11 -50.18 137.94 -77.74c51.83,-35.1 104.5,-71.48 157.99,-109.09 53.51,-37.63 90.31,-63.12 110.36,-76.49 20.06,-13.39 37.61,-20.08 52.66,-20.08 5.03,0 19.23,2.51 42.64,7.54 23.41,5.01 41.81,21.73 55.18,50.15 13.37,28.42 20.06,78.59 20.06,150.48l17.55 393.34 10.04 448.93zm2287.27 25.49l-75.23 40.13c-90.29,56.84 -168.86,114.52 -235.74,173.06l-5.03 -35.13 -47.65 -343.59c-15.04,-105.33 -26.74,-178.47 -35.1,-219.45 -8.36,-40.97 -24.26,-86.94 -47.65,-137.94 -23.41,-51 -56.86,-76.49 -100.32,-76.49 -33.45,0 -72.74,17.55 -117.88,52.68 -45.14,35.1 -104.08,98.22 -176.82,189.34 -72.73,91.13 -130.42,175.56 -173.06,253.3 -42.61,77.75 -71.46,131.68 -86.5,161.77 -15.05,30.1 -28.44,63.55 -40.14,100.33l-10.04 25.08 -12.54 30.1 -67.71 0c0,-73.99 -3.75,-173.89 -11.29,-300.13 -7.51,-125.81 -11.29,-190.61 -11.29,-193.96l-27.57 -262.08 -5.03 -45.56 -7.51 -53.08c-10.04,-70.64 -45.14,-105.76 -105.33,-105.76 -21.74,0 -41.82,5.86 -60.2,17.55l-22.58 15.05 -27.59 -47.65 388.74 -285.91c11.71,-8.36 24.26,-12.54 37.63,-12.54 15.05,0 30.52,5.43 46.39,16.3 15.88,10.87 31.77,28.44 47.65,52.68 15.9,24.24 28.02,57.26 36.38,99.05 8.34,41.81 12.52,84.45 12.52,127.92l2.53 15.04 10.01 170.54 2.51 40.13 10.04 102.83c33.45,-45.14 58.11,-78.17 73.98,-99.07 15.88,-20.89 46.82,-58.52 92.79,-112.85 46,-54.33 95.32,-109.51 147.98,-165.52 52.67,-56.01 107.84,-111.2 165.52,-165.53 57.69,-54.35 108.27,-81.52 151.73,-81.52 50.17,0 86.53,28.84 109.11,86.53 22.56,57.69 41.79,122.06 57.69,193.12 15.88,71.05 33.02,165.1 51.4,282.15l40.14 280.89 15.05 117.88 5.01 47.65 5 52.66zm1509.83 4.6l-303.48 211.09c-11.7,-35.53 -21.74,-63.12 -30.1,-83.6 -8.36,-20.07 -27.59,-61.87 -57.68,-124.98 -30.1,-63.12 -68.96,-121.64 -116.61,-175.14 -47.67,-53.51 -97.39,-91.97 -149.22,-115.38 -51.85,-23.41 -92.81,-38.86 -122.91,-46.39 -30.1,-7.52 -62.27,-13.37 -96.55,-17.55 -34.27,-4.19 -58.94,-6.27 -73.98,-6.27 -23.41,0 -49.75,2.51 -79,7.52 -29.27,5.01 -52.25,16.72 -68.98,35.1 -16.72,18.4 -25.08,39.31 -25.08,62.72 0,6.68 4.18,22.56 12.54,47.65 8.36,25.06 35.12,53.08 80.27,84 45.14,30.94 86.1,48.92 122.88,53.93 36.79,5.01 60.19,7.53 70.21,7.53 10.04,0 20.91,0 32.62,0 70.21,0 130.4,-12.54 180.58,-37.63l30.09 35.11 -5.03 5.03 -117.85 110.34c-61.87,58.52 -114.95,99.48 -159.27,122.89 -44.31,23.41 -91.54,35.12 -141.71,35.12l-35.1 0c-10.04,0 -17.56,0 -22.57,0 -105.35,-11.71 -186.43,-40.96 -243.28,-88.2 -56.84,-46.82 -85.26,-101.98 -85.26,-165.95 0,-36.78 17.96,-88.61 53.91,-155.49 35.95,-67.3 114.12,-138.36 234.5,-214.02 65.2,-36.78 137.11,-66.05 215.68,-87.78l32.6 -5.01 50.17 -12.54 87.78 -20.06 -30.09 -50.58c-45.15,-70.23 -90.29,-122.88 -135.43,-158.41 -45.15,-35.13 -87.78,-52.68 -127.92,-52.68 -31.77,0 -61.02,8.36 -87.78,25.09l-20.06 -27.59 170.54 -142.97c48.49,-40.11 89.88,-70.63 124.16,-91.54 34.27,-20.9 63.94,-31.34 89.03,-31.34 51.83,0 115.35,49.32 190.59,148.39 75.24,98.65 130,173.47 164.27,223.62 34.28,50.17 70.23,105.76 107.86,167.2 37.61,61.04 73.97,124.56 109.09,190.61 35.11,66.45 82.76,158.84 142.95,277.97l32.62 60.19zm948.02 -1047.93c-56.03,48.5 -106.6,95.32 -152.57,140.46 -45.57,45.14 -90.29,94.47 -134.6,147.97l-104.09 0 0 35.11 0 173.89c0,80.24 0,137.53 0,170.95 0,33.45 0,58.11 0,73.16l0 15.05 15.48 95.72c6.68,50.15 17.55,85.68 32.17,107.01 14.65,20.89 32.62,33.85 53.93,38.86 21.33,5.03 35.53,7.54 42.22,7.54 12.11,0 26.76,-3.36 43.89,-10.04l25.51 50.15c-43.49,31.77 -74.41,54.35 -92.81,67.72 -18.38,13.38 -44.3,29.27 -77.75,47.65l-15.05 10.04 -72.73 40.12c-58.51,31.77 -103.66,47.66 -135.43,47.66 -55.16,0 -94.87,-40.13 -119.13,-119.97 -24.24,-79.83 -38.03,-157.59 -41.39,-234.08 -3.33,-76.49 -5,-214.85 -5,-414.65l10.03 -201.89 -77.74 0c-20.08,0 -51.85,1.66 -95.31,5.01 -43.47,3.36 -76.92,5.01 -100.33,5.01l137.95 -179.72 37.61 -50.58 35.13 -50.58 77.74 10.02 7.52 -137.93 100.32 -67.73 100.33 -65.2 72.73 -47.64 72.71 -47.65 -17.55 356.13 158.01 0c28.42,0 61.02,-1.67 97.8,-5.02 36.8,-3.34 76.92,-7.52 120.4,-12.55zm426.35 -316l-215.68 168.03c-21.73,18.4 -52.65,27.59 -92.79,27.59 -16.72,0 -35.95,-2.5 -57.68,-7.51 -21.74,-5.03 -41.81,-15.05 -60.2,-30.1 -18.4,-15.05 -38.45,-40.13 -60.19,-75.24l-15.04 -32.6c66.87,-58.53 137.93,-114.54 213.17,-168.05l80.27 -50.15 35.1 37.61c35.11,43.49 63.95,73.58 86.53,90.29 22.56,16.72 51.41,30.11 86.51,40.13zm-35.1 1333.84c-120.39,68.55 -237.41,147.97 -351.11,238.25 0,-56.85 0,-131.67 0,-224.46 0,-92.79 0,-157.59 0,-194.37l-22.58 -363.24c0,-132.08 -34.28,-198.13 -102.83,-198.13 -18.38,0 -41.79,5.01 -70.21,15.05l-22.58 10.04 -35.11 -50.18 137.94 -77.74c51.83,-35.1 104.5,-71.48 157.99,-109.09 53.5,-37.63 90.3,-63.12 110.36,-76.49 20.06,-13.39 37.61,-20.08 52.66,-20.08 5.03,0 19.23,2.51 42.64,7.54 23.41,5.01 41.81,21.73 55.18,50.15 13.37,28.42 20.06,78.59 20.06,150.48l17.55 393.34 10.04 448.93zm1304.16 -724.4c35.1,83.6 52.66,163.02 52.66,238.26 0,81.93 -20.06,161.35 -60.19,238.26 -40.12,76.92 -125.82,178.07 -257.07,303.46 -131.25,125.41 -264.58,188.11 -400.03,188.11 -115.35,0 -206.89,-43.89 -274.61,-131.68 -67.71,-87.78 -110.77,-158.83 -129.17,-213.17 -18.38,-54.35 -27.57,-107.43 -27.57,-159.26 0,-73.56 15.88,-135.86 47.65,-186.84 31.77,-51 78.99,-101.57 141.69,-151.75 62.69,-50.15 105.76,-82.75 129.17,-97.8 23.41,-15.04 42.64,-26.76 57.68,-35.1l-30.09 92.79c-21.74,66.88 -32.6,124.56 -32.6,173.04 0,38.46 12.12,101.15 36.35,188.11 24.24,86.93 91.54,160.51 201.89,220.7l47.66 25.07c28.42,11.71 56.01,17.57 82.76,17.57 98.65,0 154.66,-63.54 168.03,-190.61 0,-58.51 -4.59,-110.77 -13.78,-156.76 -9.21,-45.97 -33.45,-106.16 -72.73,-180.57 -39.31,-74.39 -94.07,-135.43 -164.28,-183.08 -70.22,-47.65 -147.14,-71.48 -230.74,-71.48 -11.7,0 -22.56,0 -32.6,0 -15.05,0 -25.92,0 -32.6,0l-52.68 17.55 -7.51 -45.14 100.32 -72.74c142.12,-86.93 259.15,-130.4 351.11,-130.4 81.92,0 152.58,22.57 211.92,67.71 59.36,45.14 100.75,83.6 124.16,115.37 23.39,31.77 45.14,71.89 65.2,120.38zm1549.92 749.89l-75.24 40.13c-90.29,56.84 -168.86,114.52 -235.74,173.06l-5.03 -35.13 -47.64 -343.59c-15.05,-105.33 -26.75,-178.47 -35.11,-219.45 -8.36,-40.97 -24.26,-86.94 -47.65,-137.94 -23.41,-51 -56.85,-76.49 -100.32,-76.49 -33.45,0 -72.73,17.55 -117.88,52.68 -45.14,35.1 -104.08,98.22 -176.81,189.34 -72.74,91.13 -130.42,175.56 -173.06,253.3 -42.62,77.75 -71.46,131.68 -86.51,161.77 -15.05,30.1 -28.44,63.55 -40.14,100.33l-10.04 25.08 -12.54 30.1 -67.7 0c0,-73.99 -3.76,-173.89 -11.29,-300.13 -7.52,-125.81 -11.29,-190.61 -11.29,-193.96l-27.58 -262.08 -5.02 -45.56 -7.52 -53.08c-10.04,-70.64 -45.14,-105.76 -105.33,-105.76 -21.74,0 -41.81,5.86 -60.19,17.55l-22.59 15.05 -27.59 -47.65 388.74 -285.91c11.72,-8.36 24.26,-12.54 37.63,-12.54 15.05,0 30.52,5.43 46.4,16.3 15.87,10.87 31.77,28.44 47.64,52.68 15.9,24.24 28.02,57.26 36.38,99.05 8.34,41.81 12.52,84.45 12.52,127.92l2.53 15.04 10.02 170.54 2.5 40.13 10.04 102.83c33.45,-45.14 58.11,-78.17 73.99,-99.07 15.87,-20.89 46.82,-58.52 92.79,-112.85 45.99,-54.33 95.31,-109.51 147.97,-165.52 52.68,-56.01 107.84,-111.2 165.52,-165.53 57.69,-54.35 108.27,-81.52 151.73,-81.52 50.18,0 86.53,28.84 109.12,86.53 22.56,57.69 41.79,122.06 57.68,193.12 15.88,71.05 33.03,165.1 51.41,282.15l40.13 280.89 15.05 117.88 5.01 47.65 5.01 52.66z"/>
   <path class="fil9" d="M6401.26 11025.85l-27.86 0 0 196.22 35.71 0c42.71,0 75.25,-8.67 97.77,-25.85 22.53,-17.19 33.71,-42.06 33.71,-74.26 0,-33.87 -10.85,-58.23 -32.71,-73.41 -21.86,-15.19 -57.4,-22.7 -106.62,-22.7zm-192.05 579.66l0 -708.8 182.21 0c58.4,0 103.62,3.83 135.82,11.5 32.2,7.68 60.56,20.36 85.44,38.39 26.35,18.85 46.87,42.2 61.39,70.07 14.51,27.86 21.69,57.24 21.69,88.11 0,44.71 -11.35,83.75 -34.03,117.29 -22.7,33.54 -55.4,59.74 -98.12,78.76l216.24 304.68 -193.21 0 -189.21 -278.31 -24.03 0 0 278.31 -164.19 0zm892.21 -220.25c0,37.54 8.01,67.74 24.19,90.6 16.19,23.03 36.88,34.53 61.91,34.53 25.19,0 45.72,-11.5 61.89,-34.7 16.19,-23.19 24.21,-53.22 24.21,-90.43 0,-36.87 -8.02,-66.92 -24.21,-90.27 -16.17,-23.19 -36.7,-34.87 -61.89,-34.87 -25.03,0 -45.72,11.51 -61.91,34.7 -16.18,23.2 -24.19,53.23 -24.19,90.44zm-156.18 -0.34c0,-69.91 22.86,-127.65 68.58,-173.03 45.89,-45.22 103.61,-67.9 173.7,-67.9 70.41,0 128.47,22.68 174.36,67.9 45.88,45.38 68.91,103.12 68.91,173.03 0,70.09 -23.03,127.98 -68.91,173.37 -45.89,45.55 -103.95,68.25 -174.36,68.25 -69.75,0 -127.48,-22.7 -173.37,-68.25 -45.88,-45.39 -68.91,-103.28 -68.91,-173.37zm892.37 220.59l-155.19 0 0 -697.8 155.19 -21.01 0 718.81zm432.17 0l-155.19 0 0 -697.8 155.19 -21.01 0 718.81zm278.99 -20.02l0 -121.14c38.71,24.69 68.91,41.54 90.43,50.06 21.36,8.67 41.39,13.01 59.57,13.01 16.02,0 28.87,-3.5 38.55,-10.52 9.84,-7 14.68,-16.17 14.68,-27.69 0,-9.67 -3.33,-17.86 -10.18,-24.37 -6.84,-6.5 -18.68,-12.67 -35.2,-18.51l-56.74 -20.19c-37.04,-12.68 -65.23,-30.54 -84.42,-53.56 -19.2,-22.86 -28.71,-50.06 -28.71,-81.43 0,-44.21 15.52,-79.92 46.39,-106.78 31.04,-26.87 72.25,-40.38 123.81,-40.38 23.69,0 48.89,3.33 75.42,10.01 26.53,6.66 56.23,17.19 88.76,31.2l-19.18 106.96c-19.53,-16.52 -40.88,-29.55 -64.07,-38.89 -23.2,-9.51 -44.89,-14.18 -65.08,-14.18 -15.01,0 -27.2,3.5 -36.71,10.51 -9.51,7.02 -14.18,15.86 -14.18,26.54 0,9.17 2.67,16.35 8.01,21.68 5.34,5.34 17.36,11.18 35.87,17.36l52.9 19.02c41.37,14.68 71.08,32.37 88.76,53.23 17.86,20.86 26.7,48.05 26.7,81.76 0,48.55 -16.02,86.92 -47.89,115.13 -32.03,28.19 -75.42,42.22 -130.48,42.22 -26.87,0 -53.05,-3.35 -79.08,-10.02 -25.87,-6.67 -51.9,-17.02 -77.93,-31.03zm1056.55 -205.24l186.21 0 -91.94 -221.92 -94.27 221.92zm-265.3 225.26l361.58 -730.83 10.68 0 353.56 730.83 -177.03 0 -44.88 -103.12 -287.66 0 -45.89 103.12 -170.36 0zm1076.73 0l-153.17 0 0 -440.5 141.49 0 0 73.75c23.37,-28.87 48.39,-50.39 74.76,-64.57 26.35,-14.18 55.06,-21.2 85.93,-21.2 46.72,0 82.08,13.35 106.12,40.05 24.19,26.7 36.21,65.57 36.21,116.97l0 295.5 -152.18 0 0 -252.45c0,-23.2 -4.67,-40.55 -14.19,-52.23 -9.34,-11.85 -23.35,-17.69 -42.04,-17.69 -26.53,0 -47.05,9.02 -61.4,26.87 -14.35,18.02 -21.53,44.04 -21.53,78.26l0 217.24zm852.66 -328.7c-9.18,-5.18 -17.85,-9.02 -26.19,-11.19 -8.35,-2.34 -16.52,-3.51 -24.69,-3.51 -29.04,0 -53.57,12.19 -73.43,36.55 -19.85,24.2 -29.86,54.89 -29.86,91.77 0,34.55 8.67,63.41 26.2,86.43 17.51,23.03 38.7,34.54 63.9,34.54 9.67,0 20.02,-2 30.53,-6.17 10.68,-4.01 21.86,-10.34 33.54,-18.86l0 -209.56zm153.17 -390.11l0 718.81 -134.14 21.03 -5.85 -34.22c-21.52,11.69 -42.72,20.36 -63.57,25.87 -21.03,5.5 -42.21,8.35 -63.74,8.35 -61.57,0 -109.8,-20.36 -144.33,-61.07 -34.54,-40.72 -51.89,-97.12 -51.89,-169.2 0,-75.58 20.36,-136.15 60.91,-181.87 40.71,-45.55 94.43,-68.42 161.34,-68.42 15.69,0 30.71,1.51 45.05,4.67 14.35,3.01 28.7,7.85 43.05,14.36l0 -257.3 153.17 -21.01zm535.3 718.81l147.17 -731.83 12.18 0 267.47 461.52 252.28 -461.52 12.69 0 148.16 731.83 -160.85 0 -60.06 -323.7 -190.21 349.73 -11.35 0 -204.24 -354.57 -62.24 328.54 -151 0zm1214.73 -220.25c0,37.54 8.01,67.74 24.19,90.6 16.19,23.03 36.88,34.53 61.91,34.53 25.19,0 45.72,-11.5 61.89,-34.7 16.19,-23.19 24.21,-53.22 24.21,-90.43 0,-36.87 -8.02,-66.92 -24.21,-90.27 -16.17,-23.19 -36.7,-34.87 -61.89,-34.87 -25.03,0 -45.72,11.51 -61.91,34.7 -16.18,23.2 -24.19,53.23 -24.19,90.44zm-156.17 -0.34c0,-69.91 22.85,-127.65 68.57,-173.03 45.89,-45.22 103.62,-67.9 173.7,-67.9 70.41,0 128.47,22.68 174.36,67.9 45.88,45.38 68.91,103.12 68.91,173.03 0,70.09 -23.03,127.98 -68.91,173.37 -45.89,45.55 -103.95,68.25 -174.36,68.25 -69.74,0 -127.48,-22.7 -173.37,-68.25 -45.88,-45.39 -68.9,-103.28 -68.9,-173.37zm895.36 220.59l-154.17 0 0 -440.5 143.5 0 2.83 77.25c17.51,-30.86 38.2,-53.22 61.74,-67.24 23.52,-14.01 52.88,-21.02 88.09,-21.02l12.18 0 0 164.19 -16.02 0 -17.19 0c-47.71,0 -79.92,5.49 -96.27,16.34 -16.51,11.02 -24.69,37.21 -24.69,78.93l0 192.05zm519.61 -261.3l190.89 -5.83 0 -6.85c0,-23.2 -8.18,-42.22 -24.37,-57.07 -16.35,-14.84 -36.87,-22.36 -61.56,-22.36 -27.54,0 -50.74,8.02 -69.25,24.2 -18.52,16.19 -30.37,38.88 -35.71,67.91zm292 104.12l-17.02 135.32c-30.03,14.18 -59.57,24.86 -88.61,31.7 -29.03,6.85 -58.22,10.18 -87.92,10.18 -73.42,0 -132.49,-21.02 -177.54,-63.24 -44.88,-42.21 -67.41,-97.27 -67.41,-165.02 0,-70.74 24.53,-130.48 73.76,-179.2 49.21,-48.72 109.11,-73.08 179.53,-73.08 60.23,0 109.63,17.85 148.33,53.56 38.54,35.7 57.91,81.92 57.91,138.66 0,8.67 -0.67,22.68 -2.01,42.05l-0.5 2.83 -13.68 19.85 -300.18 8.34c2.33,29.7 14.69,53.9 37.05,72.42 22.52,18.52 50.89,27.69 84.93,27.69 24.19,0 50.89,-5.16 80.42,-15.67 29.36,-10.35 60.4,-25.86 92.94,-46.39z"/>
   <path class="fil10 str0" d="M17934.47 8118.59c269.03,0 487.12,213.35 487.12,476.54 0,263.18 -218.09,476.53 -487.12,476.53 -269.03,0 -487.12,-213.35 -487.12,-476.53 0,-263.19 218.09,-476.54 487.12,-476.54z"/>
   <path class="fil9" d="M17893.44 8401.86l-23.2 0 0 163.47 29.73 0c35.59,0 62.7,-7.22 81.47,-21.54 18.77,-14.33 28.07,-35.03 28.07,-61.86 0,-28.22 -9.02,-48.52 -27.24,-61.16 -18.21,-12.65 -47.81,-18.91 -88.83,-18.91zm-160 482.92l0 -590.51 151.81 0c48.65,0 86.32,3.19 113.15,9.59 26.83,6.39 50.46,16.96 71.17,31.97 21.97,15.7 39.06,35.16 51.16,58.38 12.09,23.22 18.06,47.68 18.06,73.41 0,37.25 -9.45,69.77 -28.35,97.71 -18.9,27.94 -46.15,49.77 -81.73,65.62l180.15 253.83 -160.97 0 -157.65 -231.87 -20 0 0 231.87 -136.8 0z"/>
  </g>
 </g>
</svg>
